#Comment line ignore any data following # character 
#Hierarchical Translation and Rotation (.htr) file 
[Header]	
#Header keywords are followed by a single value 
FileType HTR		#Single word string
DataType HTRS		#Translation followed by rotation and scale data
FileVersion 1		#integer
NumSegments 84		#integer
NumFrames 2		#integer
DataFrameRate 30		#integer, data frame rate in this file
EulerRotationOrder ZYX
CalibrationUnits mm
RotationUnits Degrees
GlobalAxisofGravity Y
BoneLengthAxis Y
ScaleFactor 1.00
[SegmentNames&Hierarchy]
#CHILD	PARENT
MASTER GLOBAL
root MASTER
chest root
L_mid_tent01 root
R_mid_tent01 root
spine01 root
Bip01_Neck chest
L_humerus chest
R_humerus chest
weapon_bone chest
Bip01_Head Bip01_Neck
eye_left_bone Bip01_Head
eye_right_bone Bip01_Head
L_forearm L_humerus
L_front_hand L_forearm
L_weapon_bone L_forearm
L_front_hand01_01 L_front_hand
L_front_hand02_01 L_front_hand
L_front_hand03_01 L_front_hand
L_front_hand01_02 L_front_hand01_01
L_front_hand02_02 L_front_hand02_01
L_front_hand03_02 L_front_hand03_01
R_forearm R_humerus
R_front_hand R_forearm
R_weapon_bone R_forearm
R_front_hand01_01 R_front_hand
R_front_hand02_01 R_front_hand
R_front_hand03_01 R_front_hand
R_front_hand01_02 R_front_hand01_01
R_front_hand02_02 R_front_hand02_01
R_front_hand03_02 R_front_hand03_01
null_rope01_connect L_mid_tent01
Rope1_Seg01 null_rope01_connect
Rope1_Seg02 Rope1_Seg01
Rope1_Seg03 Rope1_Seg02
Rope1_Seg04 Rope1_Seg03
Rope1_Seg05 Rope1_Seg04
Rope1_Seg06 Rope1_Seg05
Rope1_Seg07 Rope1_Seg06
Rope1_Seg09 Rope1_Seg07
L_mid_hand01 Rope1_Seg09
L_mid_hand02 Rope1_Seg09
L_mid_hand03 Rope1_Seg09
null_rope02_connect R_mid_tent01
Rope2_Seg01 null_rope02_connect
Rope2_Seg02 Rope2_Seg01
Rope2_Seg03 Rope2_Seg02
Rope2_Seg04 Rope2_Seg03
Rope2_Seg05 Rope2_Seg04
Rope2_Seg06 Rope2_Seg05
Rope2_Seg07 Rope2_Seg06
Rope2_Seg09 Rope2_Seg07
R_mid_hand01 Rope2_Seg09
R_mid_hand02 Rope2_Seg09
R_mid_hand03 Rope2_Seg09
spine02 spine01
spine03 spine02
pelvis spine03
null_rope03_connect pelvis
null_rope04_connect pelvis
Rope3_Seg01 null_rope03_connect
Rope3_Seg02 Rope3_Seg01
Rope3_Seg03 Rope3_Seg02
Rope3_Seg04 Rope3_Seg03
Rope3_Seg05 Rope3_Seg04
Rope3_Seg06 Rope3_Seg05
Rope3_Seg07 Rope3_Seg06
Rope3_Seg08 Rope3_Seg07
Rope3_Seg09 Rope3_Seg08
R_rear_hand01 Rope3_Seg09
R_rear_hand02 Rope3_Seg09
R_rear_hand03 Rope3_Seg09
Rope4_Seg01 null_rope04_connect
Rope4_Seg02 Rope4_Seg01
Rope4_Seg03 Rope4_Seg02
Rope4_Seg04 Rope4_Seg03
Rope4_Seg05 Rope4_Seg04
Rope4_Seg06 Rope4_Seg05
Rope4_Seg07 Rope4_Seg06
Rope4_Seg08 Rope4_Seg07
Rope4_Seg09 Rope4_Seg08
L_rear_hand01 Rope4_Seg09
L_rear_hand02 Rope4_Seg09
L_rear_hand03 Rope4_Seg09
[BasePosition]
#SegmentName Tx, Ty, Tz, Rx, Ry, Rz, BoneLength
MASTER 0.000000 0.000000 0.000000 -90.000000 0.000000 0.000000 10.000000 
root 0.000000 0.000000 0.000000 0.000000 0.000000 0.000000 10.000000 
chest 0.000000 0.000000 0.000000 0.000000 0.000000 0.000000 10.000000 
L_mid_tent01 0.000000 0.000000 0.000000 0.000000 0.000000 0.000000 10.000000 
R_mid_tent01 0.000000 0.000000 0.000000 0.000000 0.000000 0.000000 10.000000 
spine01 0.000000 0.000000 0.000000 0.000000 0.000000 0.000000 10.000000 
Bip01_Neck 0.000000 0.000000 0.000000 0.000000 0.000000 0.000000 10.000000 
L_humerus 0.000000 0.000000 0.000000 0.000000 0.000000 0.000000 10.000000 
R_humerus 0.000000 0.000000 0.000000 0.000000 0.000000 0.000000 10.000000 
weapon_bone 0.000000 0.000000 0.000000 0.000000 0.000000 0.000000 10.000000 
Bip01_Head 0.000000 0.000000 0.000000 0.000000 0.000000 0.000000 10.000000 
eye_left_bone 0.000000 0.000000 0.000000 0.000000 0.000000 0.000000 10.000000 
eye_right_bone 0.000000 0.000000 0.000000 0.000000 0.000000 0.000000 10.000000 
L_forearm 0.000000 0.000000 0.000000 0.000000 0.000000 0.000000 10.000000 
L_front_hand 0.000000 0.000000 0.000000 0.000000 0.000000 0.000000 10.000000 
L_weapon_bone 0.000000 0.000000 0.000000 0.000000 0.000000 0.000000 10.000000 
L_front_hand01_01 0.000000 0.000000 0.000000 0.000000 0.000000 0.000000 10.000000 
L_front_hand02_01 0.000000 0.000000 0.000000 0.000000 0.000000 0.000000 10.000000 
L_front_hand03_01 0.000000 0.000000 0.000000 0.000000 0.000000 0.000000 10.000000 
L_front_hand01_02 0.000000 0.000000 0.000000 0.000000 0.000000 0.000000 10.000000 
L_front_hand02_02 0.000000 0.000000 0.000000 0.000000 0.000000 0.000000 10.000000 
L_front_hand03_02 0.000000 0.000000 0.000000 0.000000 0.000000 0.000000 10.000000 
R_forearm 0.000000 0.000000 0.000000 0.000000 0.000000 0.000000 10.000000 
R_front_hand 0.000000 0.000000 0.000000 0.000000 0.000000 0.000000 10.000000 
R_weapon_bone 0.000000 0.000000 0.000000 0.000000 0.000000 0.000000 10.000000 
R_front_hand01_01 0.000000 0.000000 0.000000 0.000000 0.000000 0.000000 10.000000 
R_front_hand02_01 0.000000 0.000000 0.000000 0.000000 0.000000 0.000000 10.000000 
R_front_hand03_01 0.000000 0.000000 0.000000 0.000000 0.000000 0.000000 10.000000 
R_front_hand01_02 0.000000 0.000000 0.000000 0.000000 0.000000 0.000000 10.000000 
R_front_hand02_02 0.000000 0.000000 0.000000 0.000000 0.000000 0.000000 10.000000 
R_front_hand03_02 0.000000 0.000000 0.000000 0.000000 0.000000 0.000000 10.000000 
null_rope01_connect 0.000000 0.000000 0.000000 0.000000 0.000000 0.000000 10.000000 
Rope1_Seg01 0.000000 0.000000 0.000000 0.000000 0.000000 0.000000 10.000000 
Rope1_Seg02 0.000000 0.000000 0.000000 0.000000 0.000000 0.000000 10.000000 
Rope1_Seg03 0.000000 0.000000 0.000000 0.000000 0.000000 0.000000 10.000000 
Rope1_Seg04 0.000000 0.000000 0.000000 0.000000 0.000000 0.000000 10.000000 
Rope1_Seg05 0.000000 0.000000 0.000000 0.000000 0.000000 0.000000 10.000000 
Rope1_Seg06 0.000000 0.000000 0.000000 0.000000 0.000000 0.000000 10.000000 
Rope1_Seg07 0.000000 0.000000 0.000000 0.000000 0.000000 0.000000 10.000000 
Rope1_Seg09 0.000000 0.000000 0.000000 0.000000 0.000000 0.000000 10.000000 
L_mid_hand01 0.000000 0.000000 0.000000 0.000000 0.000000 0.000000 10.000000 
L_mid_hand02 0.000000 0.000000 0.000000 0.000000 0.000000 0.000000 10.000000 
L_mid_hand03 0.000000 0.000000 0.000000 0.000000 0.000000 0.000000 10.000000 
null_rope02_connect 0.000000 0.000000 0.000000 0.000000 0.000000 0.000000 10.000000 
Rope2_Seg01 0.000000 0.000000 0.000000 0.000000 0.000000 0.000000 10.000000 
Rope2_Seg02 0.000000 0.000000 0.000000 0.000000 0.000000 0.000000 10.000000 
Rope2_Seg03 0.000000 0.000000 0.000000 0.000000 0.000000 0.000000 10.000000 
Rope2_Seg04 0.000000 0.000000 0.000000 0.000000 0.000000 0.000000 10.000000 
Rope2_Seg05 0.000000 0.000000 0.000000 0.000000 0.000000 0.000000 10.000000 
Rope2_Seg06 0.000000 0.000000 0.000000 0.000000 0.000000 0.000000 10.000000 
Rope2_Seg07 0.000000 0.000000 0.000000 0.000000 0.000000 0.000000 10.000000 
Rope2_Seg09 0.000000 0.000000 0.000000 0.000000 0.000000 0.000000 10.000000 
R_mid_hand01 0.000000 0.000000 0.000000 0.000000 0.000000 0.000000 10.000000 
R_mid_hand02 0.000000 0.000000 0.000000 0.000000 0.000000 0.000000 10.000000 
R_mid_hand03 0.000000 0.000000 0.000000 0.000000 0.000000 0.000000 10.000000 
spine02 0.000000 0.000000 0.000000 0.000000 0.000000 0.000000 10.000000 
spine03 0.000000 0.000000 0.000000 0.000000 0.000000 0.000000 10.000000 
pelvis 0.000000 0.000000 0.000000 0.000000 0.000000 0.000000 10.000000 
null_rope03_connect 0.000000 0.000000 0.000000 0.000000 0.000000 0.000000 10.000000 
null_rope04_connect 0.000000 0.000000 0.000000 0.000000 0.000000 0.000000 10.000000 
Rope3_Seg01 0.000000 0.000000 0.000000 0.000000 0.000000 0.000000 10.000000 
Rope3_Seg02 0.000000 0.000000 0.000000 0.000000 0.000000 0.000000 10.000000 
Rope3_Seg03 0.000000 0.000000 0.000000 0.000000 0.000000 0.000000 10.000000 
Rope3_Seg04 0.000000 0.000000 0.000000 0.000000 0.000000 0.000000 10.000000 
Rope3_Seg05 0.000000 0.000000 0.000000 0.000000 0.000000 0.000000 10.000000 
Rope3_Seg06 0.000000 0.000000 0.000000 0.000000 0.000000 0.000000 10.000000 
Rope3_Seg07 0.000000 0.000000 0.000000 0.000000 0.000000 0.000000 10.000000 
Rope3_Seg08 0.000000 0.000000 0.000000 0.000000 0.000000 0.000000 10.000000 
Rope3_Seg09 0.000000 0.000000 0.000000 0.000000 0.000000 0.000000 10.000000 
R_rear_hand01 0.000000 0.000000 0.000000 0.000000 0.000000 0.000000 10.000000 
R_rear_hand02 0.000000 0.000000 0.000000 0.000000 0.000000 0.000000 10.000000 
R_rear_hand03 0.000000 0.000000 0.000000 0.000000 0.000000 0.000000 10.000000 
Rope4_Seg01 0.000000 0.000000 0.000000 0.000000 0.000000 0.000000 10.000000 
Rope4_Seg02 0.000000 0.000000 0.000000 0.000000 0.000000 0.000000 10.000000 
Rope4_Seg03 0.000000 0.000000 0.000000 0.000000 0.000000 0.000000 10.000000 
Rope4_Seg04 0.000000 0.000000 0.000000 0.000000 0.000000 0.000000 10.000000 
Rope4_Seg05 0.000000 0.000000 0.000000 0.000000 0.000000 0.000000 10.000000 
Rope4_Seg06 0.000000 0.000000 0.000000 0.000000 0.000000 0.000000 10.000000 
Rope4_Seg07 0.000000 0.000000 0.000000 0.000000 0.000000 0.000000 10.000000 
Rope4_Seg08 0.000000 0.000000 0.000000 0.000000 0.000000 0.000000 10.000000 
Rope4_Seg09 0.000000 0.000000 0.000000 0.000000 0.000000 0.000000 10.000000 
L_rear_hand01 0.000000 0.000000 0.000000 0.000000 0.000000 0.000000 10.000000 
L_rear_hand02 0.000000 0.000000 0.000000 0.000000 0.000000 0.000000 10.000000 
L_rear_hand03 0.000000 0.000000 0.000000 0.000000 0.000000 0.000000 10.000000 
#Beginning of Data. Separated by tabs
#Fr	Tx	Ty	Tz	Rx	Ry	Rz	SF
[MASTER]
38 -0.001733 11810.895508 -128.788300 0.001660 0.001660 0.001660 11811.598633
39 -0.001749 11856.765625 -107.650444 0.001660 0.001660 0.001660 11857.253906
[root]
38 -16.502302 -13.476297 1464.393555 -91.695496 -16.673615 -89.573181 1464.548706
39 -16.502304 -1.915096 1456.246582 -91.710907 -14.095623 -89.517616 1456.341431
[chest]
38 -84.512650 -34.090519 0.000000 -1.851734 0.774613 178.754044 91.129311
39 -84.512650 -34.090519 0.000000 -1.980914 0.505923 174.996933 91.129311
[L_mid_tent01]
38 27.299723 22.179510 -249.918701 -13.134344 37.137684 24.321371 252.381775
39 27.299740 22.179522 -249.918701 -16.715574 28.367313 19.601093 252.381775
[R_mid_tent01]
38 23.228794 24.509907 226.238495 -169.026550 -41.882469 29.346598 228.744751
39 23.228794 24.509907 226.238495 -166.641266 -33.300694 26.620176 228.744751
[spine01]
38 -0.361383 -0.195265 0.000000 0.001959 0.001293 23.161558 0.410763
39 -0.361383 -0.195265 0.000000 0.001955 0.001299 22.767773 0.410763
[Bip01_Neck]
38 165.484543 71.581718 0.000119 176.643677 -1.657967 43.431911 180.302734
39 165.484543 71.581718 0.000119 176.643677 -1.657967 43.431911 180.302734
[L_humerus]
38 -13.983130 -135.272980 -120.471481 -5.560544 68.683609 84.483345 181.680161
39 -13.983130 -135.272980 -120.471481 -5.515524 68.782837 84.529861 181.680161
[R_humerus]
38 -13.983309 -135.273102 125.287651 27.787117 -69.695694 67.863312 184.909012
39 -13.983309 -135.273102 125.287651 27.846901 -69.803200 67.803535 184.909012
[weapon_bone]
38 235.964890 -300.705902 0.000000 0.000000 -89.951546 -128.212341 382.234833
39 235.964890 -300.705902 0.000000 0.000000 -89.951546 -128.212341 382.234833
[Bip01_Head]
38 213.432617 185.745239 11.387713 4.987926 3.106687 -43.893661 283.168610
39 213.436279 185.735062 11.517451 4.974217 2.941352 -43.899220 283.169922
[eye_left_bone]
38 -24.626970 125.451866 -64.772606 0.000000 -90.000000 -99.840431 143.318359
39 -24.626970 125.451866 -64.772606 0.000000 -90.000000 -99.840431 143.318359
[eye_right_bone]
38 -24.626970 125.451866 64.327362 0.000000 -89.965736 80.156380 143.117676
39 -24.626970 125.451866 64.327362 0.000000 -89.965736 80.156380 143.117676
[L_forearm]
38 322.776093 0.000000 -0.000119 0.000397 -0.002313 -109.480553 322.776093
39 322.776093 0.000000 -0.000119 0.000397 -0.002313 -109.453300 322.776093
[L_front_hand]
38 241.149185 -0.042021 -3.300071 -178.667953 -1.835447 -27.422350 241.171753
39 241.149185 -0.042021 -3.300071 -178.667953 -1.835447 -27.422350 241.171753
[L_weapon_bone]
38 156.183838 0.000000 0.000000 0.000014 0.000007 0.000001 156.183838
39 156.183838 0.000000 0.000000 0.000014 0.000007 0.000001 156.183838
[L_front_hand01_01]
38 86.095154 20.947098 -0.655860 -0.366594 -0.477154 75.385574 88.609184
39 86.095154 20.947098 -0.655860 -0.366594 -0.477154 75.385574 88.609184
[L_front_hand02_01]
38 86.935165 -11.437475 24.513514 154.399796 -59.883835 -61.369587 91.046425
39 86.935165 -11.437475 24.513514 154.399796 -59.883835 -61.369587 91.046425
[L_front_hand03_01]
38 86.637497 -14.123976 -20.424902 -153.913849 58.118122 -62.702866 90.126129
39 86.637497 -14.123976 -20.424902 -153.913849 58.118122 -62.702866 90.126129
[L_front_hand01_02]
38 71.020905 -0.000179 0.000030 0.000334 -0.002323 -106.342621 71.020905
39 71.020905 -0.000179 0.000030 0.000334 -0.002323 -106.354980 71.020905
[L_front_hand02_02]
38 71.020927 -0.000119 0.000060 0.000334 -0.002323 -106.342621 71.020927
39 71.020927 -0.000119 0.000060 0.000334 -0.002323 -106.354980 71.020927
[L_front_hand03_02]
38 71.020905 -0.000060 0.000060 0.000334 -0.002323 -106.342621 71.020905
39 71.020905 -0.000060 0.000060 0.000334 -0.002323 -106.354980 71.020905
[R_forearm]
38 322.776428 -0.000060 0.000030 0.202064 0.065276 -108.130020 322.776428
39 322.776428 -0.000060 0.000030 0.202082 0.065222 -108.099472 322.776428
[R_front_hand]
38 238.847015 -0.006795 2.210259 -2.635298 -10.645461 -26.312506 238.857239
39 238.847015 -0.006795 2.210259 -2.635298 -10.645461 -26.312506 238.857239
[R_weapon_bone]
38 155.664093 0.002503 -0.000030 0.003487 0.001180 -90.988930 155.664078
39 155.664093 0.002503 -0.000030 0.003487 0.001180 -90.988930 155.664078
[R_front_hand01_01]
38 87.624611 14.231146 22.918642 -154.633514 -59.950634 61.746063 91.683487
39 87.624611 14.231146 22.918642 -154.633499 -59.950619 61.746044 91.683487
[R_front_hand02_01]
38 89.356956 14.367283 -19.491137 154.602661 58.302849 63.744389 92.579636
39 89.356956 14.367283 -19.491137 154.602661 58.302849 63.744389 92.579636
[R_front_hand03_01]
38 87.286232 -22.307278 -0.143439 0.162155 -0.423168 -75.767921 90.091743
39 87.286232 -22.307278 -0.143439 0.162155 -0.423168 -75.767906 90.091743
[R_front_hand01_02]
38 71.020905 0.000060 0.000119 0.002323 -0.000334 106.381714 71.020905
39 71.020905 0.000060 0.000119 0.002323 -0.000334 106.381714 71.020905
[R_front_hand02_02]
38 71.020844 -0.000030 -0.000119 0.002323 -0.000334 106.381714 71.020836
39 71.020844 -0.000030 -0.000119 0.002323 -0.000334 106.381714 71.020836
[R_front_hand03_02]
38 71.020905 0.000000 0.000030 0.002323 -0.000334 106.381714 71.020905
39 71.020905 0.000000 0.000030 0.002323 -0.000334 106.381714 71.020905
[null_rope01_connect]
38 328.732483 0.000000 -0.000238 -120.448311 -50.068424 -161.126862 328.732483
39 328.732483 0.000000 -0.000238 -129.848679 -56.439018 -149.507065 328.732483
[Rope1_Seg01]
38 -0.000005 -0.000009 0.000018 23.362385 7.129734 -111.297623 0.000021
39 -0.000004 -0.000007 0.000015 37.722687 7.517495 -116.656029 0.000017
[Rope1_Seg02]
38 139.999863 -0.000179 0.000000 3.261455 0.303475 -1.909432 139.999863
39 139.999863 -0.000179 0.000000 -5.893362 1.506531 1.043472 139.999863
[Rope1_Seg03]
38 139.999924 0.000060 -0.000060 9.972213 1.097098 -4.863803 139.999924
39 139.999924 0.000060 -0.000060 -3.651232 2.106442 -0.881999 139.999924
[Rope1_Seg04]
38 139.999924 -0.000060 -0.000119 -1.916256 -0.646060 1.496493 139.999924
39 139.999924 -0.000060 -0.000119 -8.880804 0.597144 3.512692 139.999924
[Rope1_Seg05]
38 139.999832 0.000119 -0.000060 -12.685718 -2.019126 10.657163 139.999832
39 139.999832 0.000119 -0.000060 -5.988343 -3.696897 8.273477 139.999832
[Rope1_Seg06]
38 139.999954 0.000119 -0.000060 -2.742529 -1.961824 4.428506 139.999954
39 139.999954 0.000119 -0.000060 -1.765579 -1.902583 3.603251 139.999954
[Rope1_Seg07]
38 139.999985 0.000060 0.000000 -1.303490 -1.391747 2.767925 139.999985
39 139.999985 0.000060 0.000000 -0.891762 -1.198309 2.177499 139.999985
[Rope1_Seg09]
38 121.602913 0.000119 -0.000089 -89.793175 -1.359789 0.847147 121.602913
39 121.602913 0.000119 -0.000089 -89.793175 -1.359789 0.847147 121.602913
[L_mid_hand01]
38 103.859421 1.038730 8.195221 130.544373 -67.584534 -38.866943 104.187431
39 103.859421 1.038730 8.195221 130.544373 -67.584534 -38.866943 104.187431
[L_mid_hand02]
38 105.572853 -4.139662 -10.864139 -168.923172 43.409309 -73.498886 106.211075
39 105.572853 -4.139662 -10.864139 -168.923172 43.409309 -73.498886 106.211075
[L_mid_hand03]
38 104.641464 17.579376 -3.913581 -6.012626 17.808172 74.893661 106.179977
39 104.641464 17.579376 -3.913581 -6.012627 17.808174 74.893669 106.179977
[null_rope02_connect]
38 328.732849 0.000179 -0.000119 -117.341095 47.781940 -9.914881 328.732849
39 328.732849 0.000179 -0.000119 -123.925972 55.305206 -16.953945 328.732849
[Rope2_Seg01]
38 0.000072 0.000018 0.000000 95.527939 13.472629 -61.847324 0.000074
39 0.000073 0.000015 0.000000 92.753670 14.883541 -53.991699 0.000074
[Rope2_Seg02]
38 139.999741 -0.000060 -0.000119 -14.757459 1.190133 5.665196 139.999756
39 139.999741 -0.000060 -0.000119 -14.488439 -4.409302 7.276559 139.999756
[Rope2_Seg03]
38 140.000107 0.000030 0.000000 -17.801517 3.357863 6.250511 140.000107
39 140.000107 0.000030 0.000000 -12.618291 -1.480081 6.607940 140.000107
[Rope2_Seg04]
38 139.999802 0.000000 -0.000060 4.344328 -5.216956 0.006761 139.999802
39 139.999802 0.000000 -0.000060 7.410214 -7.752165 -1.131961 139.999802
[Rope2_Seg05]
38 139.999985 -0.000060 0.000119 13.853143 -10.262324 -5.175491 139.999985
39 139.999985 -0.000060 0.000119 11.367061 -10.099612 -4.658833 139.999985
[Rope2_Seg06]
38 139.999893 -0.000030 -0.000119 3.751581 -5.535133 -0.838654 139.999893
39 139.999893 -0.000030 -0.000119 3.106922 -5.248528 -0.769777 139.999893
[Rope2_Seg07]
38 139.999893 0.000060 -0.000060 1.840611 -3.625463 -0.254551 139.999893
39 139.999893 0.000060 -0.000060 1.513025 -3.353999 -0.245520 139.999893
[Rope2_Seg09]
38 121.338966 0.000089 -0.000060 33.793236 -1.359788 -0.847141 121.338966
39 121.338966 0.000089 -0.000060 33.793236 -1.359788 -0.847141 121.338966
[R_mid_hand01]
38 104.680779 11.144459 -10.335981 -16.212063 45.237240 70.462845 105.778534
39 104.680779 11.144459 -10.335981 -16.212063 45.237247 70.462852 105.778534
[R_mid_hand02]
38 104.070427 2.443552 8.231699 49.067368 -67.749771 39.286453 104.424065
39 104.070427 2.443552 8.231699 49.067368 -67.749771 39.286453 104.424065
[R_mid_hand03]
38 106.028137 -11.221827 -5.996406 -177.101105 15.551026 -76.585571 106.788818
39 106.028137 -11.221827 -5.996406 -177.101105 15.551026 -76.585571 106.788818
[spine02]
38 129.756927 0.001550 0.000119 0.365956 -4.044212 -13.012389 129.756927
39 129.756927 0.001550 0.000119 0.361470 -4.044672 -12.954952 129.756927
[spine03]
38 78.614449 0.081616 -4.898990 1.898335 3.830377 16.528101 78.766991
39 78.614456 0.081620 -4.898990 1.897722 3.830682 16.509752 78.766998
[pelvis]
38 169.435242 0.051022 0.000000 -0.060645 -0.180165 14.202551 169.435257
39 169.435242 0.051022 0.000000 -0.060567 -0.180191 14.152712 169.435257
[null_rope03_connect]
38 -1.257226 -2.466202 137.391083 0.000000 -89.498375 65.809143 137.418976
39 -1.257226 -2.466202 137.391083 0.000000 -89.443275 63.660801 137.418976
[null_rope04_connect]
38 -1.259640 -2.480268 -137.844437 0.000000 -89.498375 65.809143 137.872513
39 -1.259640 -2.480268 -137.844437 0.000000 -89.443275 63.660801 137.872513
[Rope3_Seg01]
38 -0.000030 0.000000 -0.000134 -131.444565 27.200644 -75.649628 0.000138
39 -0.000030 0.000000 -0.000138 -132.586990 27.685469 -78.147156 0.000141
[Rope3_Seg02]
38 139.999924 -0.000119 0.000060 -0.134468 -6.417969 -1.194520 139.999924
39 139.999924 -0.000119 0.000060 -0.177529 -4.884393 -1.718456 139.999924
[Rope3_Seg03]
38 139.999924 -0.000119 0.000119 0.699230 -12.124986 -1.510030 139.999924
39 139.999924 -0.000119 0.000119 0.260312 -9.124227 -2.619126 139.999924
[Rope3_Seg04]
38 139.999924 0.000119 0.000000 0.730717 -5.926051 -1.645759 139.999924
39 139.999924 0.000119 0.000000 0.460861 -5.586335 -2.204637 139.999924
[Rope3_Seg05]
38 139.999924 -0.000238 0.000060 -1.960869 18.025476 -1.290926 139.999924
39 139.999924 -0.000238 0.000060 -0.319484 15.496033 1.785148 139.999924
[Rope3_Seg06]
38 139.999893 -0.000119 -0.000060 0.341754 7.788690 -0.465802 139.999893
39 139.999893 -0.000119 -0.000060 0.856041 7.206528 0.818779 139.999893
[Rope3_Seg07]
38 139.999771 0.000060 -0.000119 0.685258 4.594714 -0.356912 139.999771
39 139.999771 0.000060 -0.000119 0.933856 3.995974 0.336143 139.999771
[Rope3_Seg08]
38 139.999985 -0.000060 0.000000 0.704283 2.485992 -0.220500 139.999985
39 139.999985 -0.000060 0.000000 0.861042 2.433913 0.168374 139.999985
[Rope3_Seg09]
38 90.185997 -0.000179 -0.000060 89.793228 -1.359877 -0.847183 90.185997
39 90.185997 -0.000179 -0.000060 89.793228 -1.359877 -0.847183 90.185997
[R_rear_hand01]
38 103.366196 -6.073594 -10.757982 -177.714203 24.565960 -73.910950 104.101845
39 103.366196 -6.073594 -10.757982 -177.714203 24.565960 -73.910950 104.101845
[R_rear_hand02]
38 100.509819 12.039542 -7.992327 -12.874829 36.868488 72.167213 101.543350
39 100.509819 12.039542 -7.992327 -12.874829 36.868488 72.167213 101.543350
[R_rear_hand03]
38 101.539970 5.215704 5.435467 71.484581 -71.816628 21.513813 101.819031
39 101.539970 5.215704 5.435467 71.484581 -71.816628 21.513813 101.819031
[Rope4_Seg01]
38 0.000010 0.000038 -0.000114 53.082516 36.550694 -100.440414 0.000121
39 0.000010 0.000038 -0.000114 50.789925 36.279556 -104.433517 0.000121
[Rope4_Seg02]
38 139.999985 0.000060 0.000119 0.300024 -0.992539 -1.895257 139.999985
39 139.999985 0.000060 0.000119 0.056087 -0.042796 -0.072503 139.999985
[Rope4_Seg03]
38 139.999924 0.000000 -0.000238 0.455094 -1.128017 -3.336798 139.999924
39 139.999924 0.000000 -0.000238 0.095283 0.204622 -0.190989 139.999924
[Rope4_Seg04]
38 139.999985 0.000000 0.000119 0.823965 -0.257683 -10.157172 139.999985
39 139.999985 0.000000 0.000119 0.501696 3.916253 -1.440829 139.999985
[Rope4_Seg05]
38 139.999802 -0.000060 -0.000119 -0.705000 -17.258429 11.673693 139.999802
39 139.999802 -0.000060 -0.000119 -1.384450 -15.753895 4.563089 139.999802
[Rope4_Seg06]
38 139.999924 0.000000 0.000060 1.110657 -5.956812 4.689755 139.999924
39 139.999924 0.000000 0.000060 0.305423 -5.687983 1.561093 139.999924
[Rope4_Seg07]
38 139.999802 0.000000 0.000000 0.791704 -2.906307 2.015034 139.999802
39 139.999802 0.000000 0.000000 0.346530 -2.602213 0.716010 139.999802
[Rope4_Seg08]
38 139.999924 0.000000 0.000119 -1.028353 -1.600563 1.143798 139.999924
39 139.999924 0.000000 0.000119 -1.299436 -1.452819 0.408878 139.999924
[Rope4_Seg09]
38 90.185791 0.000060 0.000060 -135.617828 2.228885 0.850567 90.185791
39 90.185791 0.000060 0.000060 -135.617828 2.228885 0.850567 90.185791
[L_rear_hand01]
38 101.696655 -8.392275 -7.654577 -12.874829 -36.868488 107.832764 102.329041
39 101.696655 -8.392275 -7.654577 -12.874829 -36.868488 107.832764 102.329041
[L_rear_hand02]
38 102.726799 -1.568258 5.773216 71.484581 71.816628 158.486160 102.900848
39 102.726799 -1.568258 5.773216 71.484581 71.816628 158.486160 102.900848
[L_rear_hand03]
38 104.552910 9.721220 -10.420293 -177.714203 -24.565960 -106.089035 105.519653
39 104.552910 9.721220 -10.420293 -177.714203 -24.565960 -106.089035 105.519653
